<?xml version="1.0" encoding="UTF-8"?>
<svg width="62px" height="62px" viewBox="0 0 62 62" version="1.1" xmlns="http://www.w3.org/2000/svg" xmlns:xlink="http://www.w3.org/1999/xlink">
    <title>checked</title>
    <g id="null" stroke="none" stroke-width="1" fill="none" fill-rule="evenodd">
        <g id="HOME" transform="translate(-20.000000, -1038.000000)" fill="#FDA51E" stroke="#FDA51E">
            <path d="M78.0873754,1053.76796 C77.0847752,1051.14156 75.5467437,1048.79105 73.6023358,1046.8468 C71.658048,1044.90256 69.3069938,1043.36419 66.6810387,1042.36231 C65.8539756,1042.04705 61.4591496,1040.43044 56.0913847,1039.57063 C41.8695053,1037.29241 33.4272673,1042.26991 28.849934,1046.84681 C24.2739408,1051.42374 19.2968215,1059.86511 21.5749827,1074.08817 C22.4342671,1079.45579 24.0500618,1083.85055 24.3656245,1084.67756 C25.3681046,1087.30393 26.9066162,1089.65457 28.849934,1091.59878 C30.7945919,1093.54314 33.145276,1095.08124 35.7714711,1096.08367 C36.5975542,1096.39856 40.9932402,1098.01496 46.3608851,1098.87505 C60.5828945,1101.1533 69.0250025,1096.17559 73.6023358,1091.59878 C78.1799091,1087.02185 83.1570384,1078.58027 80.8785071,1064.35717 C80.0187327,1058.98969 78.401598,1054.59466 78.0873754,1053.76796 Z" id="checked"></path>
        </g>
    </g>
</svg>