<?xml version="1.0" encoding="UTF-8"?>
<svg width="22px" height="23px" viewBox="0 0 22 23" version="1.1" xmlns="http://www.w3.org/2000/svg" xmlns:xlink="http://www.w3.org/1999/xlink">
    <title>settings</title>
    <g id="null" stroke="none" stroke-width="1" fill="none" fill-rule="evenodd">
        <g id="HOME" transform="translate(-333.000000, -57.000000)" fill="#C1C1C1">
            <g id="settings" transform="translate(333.006820, 57.992220)">
                <path d="M10.49709,15.0842 C12.93581,15.1608 14.98928,13.26688 15.08181,10.81046 C15.17312,8.38266 13.28127,6.31955 10.80032,6.21018 C8.40213,6.10447 6.3406,8.01456 6.21341,10.48667 C6.08939,12.89347 8.00833,14.95304 10.4971,15.0842 C10.4971,15.0842 10.49709,15.0842 10.49709,15.0842 Z M9.44264,3e-05 C10.2466,3e-05 11.05079,3e-05 11.85499,3e-05 C11.87965,0.01144 11.90382,0.02713 11.93019,0.03397 C12.52467,0.18802 12.86818,0.57523 12.96022,1.17557 C13.03468,1.66141 13.09108,2.15048 13.14308,2.63925 C13.15871,2.78287 13.21217,2.85379 13.35036,2.90396 C13.65505,3.01486 13.95558,3.14072 14.25026,3.27737 C14.36354,3.3301 14.43581,3.31466 14.52736,3.24209 C14.90138,2.94454 15.28005,2.65261 15.65846,2.35995 C16.27614,1.88192 16.96095,1.91629 17.51442,2.4598 C17.959,2.89699 18.40016,3.33852 18.83766,3.78316 C19.37575,4.33028 19.41676,5.01271 18.9507,5.62245 C18.66066,6.00239 18.36794,6.38057 18.06911,6.75386 C17.98635,6.85725 17.96633,6.93666 18.02809,7.06599 C18.1653,7.35249 18.28541,7.64851 18.39284,7.94752 C18.44289,8.08583 18.51491,8.13813 18.65822,8.15431 C19.17409,8.21235 19.69093,8.26997 20.2029,8.3553 C20.84157,8.46168 21.28664,8.99013 21.29445,9.63478 C21.30318,10.31416 21.30373,10.99354 21.29396,11.6728 C21.28493,12.30519 20.83766,12.83528 20.21217,12.93989 C19.69337,13.02668 19.16945,13.08442 18.64698,13.14466 C18.51124,13.16016 18.44386,13.2121 18.39649,13.34138 C18.2876,13.63984 18.16846,13.93592 18.03296,14.22364 C17.9751,14.3476 17.97485,14.42811 18.06275,14.53681 C18.36744,14.91407 18.66382,15.29822 18.95777,15.68403 C19.41431,16.28346 19.37281,16.96845 18.84376,17.50788 C18.40211,17.95832 17.95509,18.40351 17.50563,18.84595 C16.96901,19.37403 16.28029,19.41419 15.68214,18.95594 C15.29176,18.65662 14.90235,18.35554 14.51783,18.04877 C14.4297,17.97846 14.36158,17.97016 14.25831,18.01648 C13.94947,18.15515 13.6377,18.28931 13.32032,18.40649 C13.20142,18.45037 13.1609,18.51373 13.14747,18.62884 C13.09303,19.10345 13.0315,19.57739 12.97364,20.05175 C12.87965,20.81902 12.34376,21.29559 11.56739,21.29736 C10.92994,21.2987 10.292,21.302 9.6543,21.29614 C8.99756,21.28998 8.46363,20.84833 8.35547,20.20135 C8.26978,19.68939 8.21265,19.17254 8.15381,18.65649 C8.1377,18.51342 8.08545,18.4411 7.94678,18.39123 C7.64771,18.28363 7.35376,18.15991 7.06494,18.02709 C6.94922,17.97381 6.87134,17.9749 6.76977,18.05639 C6.39135,18.35992 6.00805,18.65716 5.62182,18.95043 C5.00976,19.4154 4.32617,19.37279 3.78198,18.83605 C3.33789,18.39776 2.89721,17.95635 2.45874,17.5125 C1.9209,16.96825 1.88037,16.28521 2.3479,15.67406 C2.64673,15.28337 2.9541,14.89891 3.24756,14.50408 C3.28931,14.44823 3.30249,14.33764 3.27759,14.27172 C3.15576,13.94829 3.0232,13.62829 2.87842,13.31481 C2.84571,13.24438 2.75269,13.16778 2.67798,13.15661 C2.20581,13.08618 1.73096,13.031 1.25611,12.97515 C0.8838,12.93133 0.5459,12.80285 0.32227,12.49547 C0.1836,12.30461 0.10523,12.07005 0,11.85509 C0,11.0371 0,10.21904 0,9.40081 C0.01343,9.37847 0.03223,9.35778 0.03955,9.33355 C0.21509,8.73711 0.61938,8.40868 1.22827,8.3272 C1.70141,8.26385 2.17554,8.20379 2.65063,8.15294 C2.78613,8.13835 2.85278,8.08525 2.90039,7.95635 C3.01294,7.65191 3.13574,7.35027 3.27344,7.05657 C3.33032,6.93542 3.31226,6.85985 3.23487,6.76281 C2.93287,6.38354 2.6355,6.00048 2.34132,5.61523 C1.87867,5.00964 1.9253,4.32128 2.4651,3.77771 C2.89894,3.34015 3.33522,2.90448 3.77321,2.47003 C4.32546,1.92181 5.00466,1.87713 5.62575,2.35028 C6.01711,2.64807 6.40138,2.95514 6.79494,3.24957 C6.84743,3.28894 6.94924,3.30755 7.00881,3.28497 C7.3445,3.15771 7.67702,3.02002 8.00442,2.87262 C8.06521,2.84522 8.12966,2.76263 8.13943,2.69751 C8.19485,2.33514 8.23196,1.96979 8.28006,1.6062 C8.32816,1.2442 8.3411,0.87353 8.57132,0.55939 C8.79105,0.25873 9.09329,0.09479 9.44266,0 C9.44266,0 9.44264,3e-05 9.44264,3e-05 Z" id="패스-176"></path>
            </g>
        </g>
    </g>
</svg>