<?xml version="1.0" encoding="UTF-8"?>
<svg width="63px" height="62px" viewBox="0 0 63 62" version="1.1" xmlns="http://www.w3.org/2000/svg" xmlns:xlink="http://www.w3.org/1999/xlink">
    <title>unchecked</title>
    <g id="null" stroke="none" stroke-width="1" fill="none" fill-rule="evenodd">
        <g id="HOME" transform="translate(-109.000000, -1038.000000)" stroke="#E2E2E2">
            <path d="M167.318752,1053.76796 C166.316318,1051.14156 164.778541,1048.79105 162.834455,1046.8468 C160.890488,1044.90256 158.539823,1043.36419 155.914302,1042.36231 C155.087376,1042.04705 150.693277,1040.43044 145.3264,1039.57063 C131.106873,1037.29241 122.666032,1042.26991 118.089456,1046.84681 C113.51422,1051.42374 108.537924,1059.86511 110.815708,1074.08817 C111.67485,1079.45579 113.290378,1083.85055 113.605888,1084.67756 C114.608203,1087.30393 116.14646,1089.65457 118.089456,1091.59878 C120.033792,1093.54314 122.384087,1095.08124 125.009848,1096.08367 C125.835794,1096.39856 130.230753,1098.01496 135.59751,1098.87505 C149.817167,1101.1533 158.257878,1096.17559 162.834455,1091.59878 C167.411271,1087.02185 172.387576,1078.58027 170.109422,1064.35717 C169.24979,1058.98969 167.632923,1054.59466 167.318752,1053.76796 Z" id="unchecked"></path>
        </g>
    </g>
</svg>